<svg width="120" height="40" viewBox="0 0 120 40" fill="none" xmlns="http://www.w3.org/2000/svg">
  <path d="M20 0C31.0457 0 40 8.9543 40 20C40 31.0457 31.0457 40 20 40C8.9543 40 0 31.0457 0 20C0 8.9543 8.9543 0 20 0Z" fill="#FF6B00"/>
  <path d="M28.5 15C28.5 19.1421 25.1421 22.5 21 22.5C16.8579 22.5 13.5 19.1421 13.5 15C13.5 10.8579 16.8579 7.5 21 7.5C25.1421 7.5 28.5 10.8579 28.5 15Z" fill="white"/>
  <path d="M10 30C10 25.5817 13.5817 22 18 22H24C28.4183 22 32 25.5817 32 30V32H10V30Z" fill="white"/>
  <path d="M50 15H45V25H50V15Z" fill="#333333"/>
  <path d="M60 15H55V25H60V15Z" fill="#333333"/>
  <path d="M70 15H65V25H70V15Z" fill="#333333"/>
  <path d="M80 15H75V25H80V15Z" fill="#333333"/>
  <path d="M90 15H85V25H90V15Z" fill="#333333"/>
  <path d="M100 15H95V25H100V15Z" fill="#333333"/>
  <path d="M110 15H105V25H110V15Z" fill="#333333"/>
</svg>

